<?xml version="1.0" encoding="UTF-8" standalone="no"?>
<!-- Created with Inkscape (http://www.inkscape.org/) -->

<svg
   xmlns:dc="http://purl.org/dc/elements/1.1/"
   xmlns:cc="http://creativecommons.org/ns#"
   xmlns:rdf="http://www.w3.org/1999/02/22-rdf-syntax-ns#"
   xmlns:svg="http://www.w3.org/2000/svg"
   xmlns="http://www.w3.org/2000/svg"
   xmlns:sodipodi="http://sodipodi.sourceforge.net/DTD/sodipodi-0.dtd"
   xmlns:inkscape="http://www.inkscape.org/namespaces/inkscape"
   width="252mm"
   height="199mm"
   viewBox="0 0 252 199"
   version="1.1"
   id="svg10352"
   inkscape:version="0.92.3 (unknown)"
   sodipodi:docname="case.svg">
  <defs
     id="defs10346" />
  <sodipodi:namedview
     id="base"
     pagecolor="#ffffff"
     bordercolor="#666666"
     borderopacity="1.0"
     inkscape:pageopacity="0.0"
     inkscape:pageshadow="2"
     inkscape:zoom="1.5"
     inkscape:cx="196.24037"
     inkscape:cy="373.70855"
     inkscape:document-units="mm"
     inkscape:current-layer="layer4"
     showgrid="false"
     units="mm"
     inkscape:window-width="2552"
     inkscape:window-height="1406"
     inkscape:window-x="1920"
     inkscape:window-y="0"
     inkscape:window-maximized="0"
     inkscape:measure-start="990.132,740.789"
     inkscape:measure-end="990.789,772.368" />
  <metadata
     id="metadata10349">
    <rdf:RDF>
      <cc:Work
         rdf:about="">
        <dc:format>image/svg+xml</dc:format>
        <dc:type
           rdf:resource="http://purl.org/dc/dcmitype/StillImage" />
        <dc:title />
      </cc:Work>
    </rdf:RDF>
  </metadata>
  <g
     style="display:none"
     transform="translate(0,-97.999974)"
     id="g5665"
     inkscape:groupmode="layer"
     inkscape:label="Layer C">
    <path
       sodipodi:nodetypes="cc"
       inkscape:connector-curvature="0"
       id="path5657"
       d="m 200.33765,285.7501 v 0"
       style="fill:none;stroke:#ff0000;stroke-width:0.02822222mm" />
    <path
       sodipodi:nodetypes="cc"
       inkscape:connector-curvature="0"
       id="path5661"
       d="m 200.33765,285.7501 v 0"
       style="fill:none;stroke:#ff0000;stroke-width:0.02822222mm" />
    <path
       style="display:inline;fill:none;stroke:#ff0000;stroke-width:0.02822223mm"
       d="m 31.658667,144.23598 c 0.002,-2.0289 -3.041497,-2.0289 -3.043337,0 -0.002,2.02889 3.041497,2.02888 3.043337,0 z"
       id="path41-2"
       inkscape:connector-curvature="0"
       sodipodi:nodetypes="sss" />
    <path
       style="display:inline;fill:none;stroke:#ff0000;stroke-width:0.02822222mm"
       d="m 106.36085,143.56098 c 0.005,-2.02888 -3.04859,-2.02889 -3.04333,0 -0.005,2.02888 3.04861,2.02889 3.04333,0 z"
       id="path43-9"
       inkscape:connector-curvature="0"
       sodipodi:nodetypes="ccc" />
    <path
       style="display:inline;fill:none;stroke:#ff0000;stroke-width:0.02822222mm"
       d="m 181.06304,144.23598 c 0,-2.0289 -3.04335,-2.0289 -3.04335,0 0,2.02888 3.04335,2.02888 3.04335,0 z"
       id="path47-1"
       inkscape:connector-curvature="0"
       sodipodi:nodetypes="sss" />
    <path
       style="display:inline;fill:none;stroke:#ff0000;stroke-width:0.02822222mm"
       d="m 223.58765,231.90086 c 0.009,-2.59841 -3.8973,-2.59462 -3.89331,0.004 -0.009,2.59841 3.89731,2.59463 3.89331,-0.004 z"
       id="path23-3"
       inkscape:connector-curvature="0"
       sodipodi:nodetypes="ccc" />
    <path
       style="display:inline;fill:none;stroke:#ff0000;stroke-width:0.02822223mm"
       d="m 112.97566,251.76681 c 0.005,-2.59844 -3.8982,-2.59844 -3.89332,0 -0.005,2.59844 3.89819,2.59845 3.89332,0 z"
       id="path25-6"
       inkscape:connector-curvature="0"
       sodipodi:nodetypes="ccc" />
    <path
       style="display:inline;fill:none;stroke:#ff0000;stroke-width:0.02822222mm"
       d="m 32.083662,250.90382 c 0.0051,-2.59844 -3.898287,-2.59844 -3.893324,0 -0.0051,2.59844 3.898287,2.59844 3.893324,0 z"
       id="path27-0"
       inkscape:connector-curvature="0"
       sodipodi:nodetypes="ccc" />
    <path
       style="display:inline;fill:none;stroke:#ff0000;stroke-width:0.02822222mm"
       d="m 196.62163,289.71291 c 0.0115,-2.59821 -3.90018,-2.59485 -3.89328,0.004 -0.0115,2.59819 3.90016,2.59483 3.89328,-0.004 z"
       id="path65-6"
       inkscape:connector-curvature="0"
       sodipodi:nodetypes="ccc" />
  </g>
  <g
     inkscape:groupmode="layer"
     id="layer15"
     inkscape:label="Layer CD"
     style="display:none">
    <path
       sodipodi:nodetypes="ccccccccccccccc"
       inkscape:connector-curvature="0"
       id="path5663"
       d="m 25.712393,46.811005 c -10e-6,-3.86598 1.133633,-5.00001 4.999622,-5.00001 l 148.306985,1e-5 c 3.86582,0 5.00082,1.13402 5.001,5 l -2.5e-4,59.129815 c -10e-6,2.7205 2.31865,6.61481 4.78431,7.76446 l 34.1845,15.94047 c 3.50391,1.63376 4.05232,3.14078 2.41846,6.64463 l -26.48048,56.78743 c -1.63375,3.5036 -3.14091,4.05193 -6.64465,2.41846 L 111.9429,158.03365 c -0.92625,-0.43182 -2.45074,-0.70245 -3.47272,-0.70245 l -77.758165,-2e-4 c -3.865999,-2e-5 -4.999692,-1.13401 -4.999682,-5.00001 z"
       style="display:inline;fill:none;stroke:#ff0000;stroke-width:0.10700001;stroke-miterlimit:4;stroke-dasharray:none" />
  </g>
  <g
     inkscape:groupmode="layer"
     id="layer20"
     inkscape:label="Layer 15"
     style="display:inline" />
  <g
     inkscape:label="Layer 12345"
     inkscape:groupmode="layer"
     id="layer1"
     transform="translate(0,-97.999974)"
     style="display:inline">
    <path
       style="fill:none;stroke:#ff0000;stroke-width:0.02822222mm"
       d="m 223.14048,231.89779 c 0.007,-2.00925 -3.00443,-2.00632 -3.00135,0.003 -0.007,2.00925 3.00444,2.00632 3.00135,-0.003 z"
       id="path23"
       inkscape:connector-curvature="0"
       sodipodi:nodetypes="ccc" />
    <path
       style="fill:none;stroke:#ff0000;stroke-width:0.02822222mm"
       d="m 112.55067,251.76898 c 0.004,-2.02889 -3.04713,-2.02889 -3.04332,0 -0.004,2.02888 3.04713,2.02889 3.04332,0 z"
       id="path25"
       inkscape:connector-curvature="0"
       sodipodi:nodetypes="ccc" />
    <path
       style="fill:none;stroke:#ff0000;stroke-width:0.02822222mm"
       d="m 31.658687,250.90597 c 0.004,-2.02889 -3.047217,-2.02889 -3.043337,0 -0.004,2.02889 3.047217,2.02889 3.043337,0 z"
       id="path27"
       inkscape:connector-curvature="0"
       sodipodi:nodetypes="ccc" />
    <path
       style="fill:none;stroke:#ff0000;stroke-width:0.02822223mm"
       d="m 31.658667,105.02898 c 0.002,-2.0289 -3.041497,-2.0289 -3.043337,0 -0.002,2.02889 3.041497,2.02888 3.043337,0 z"
       id="path41"
       inkscape:connector-curvature="0"
       sodipodi:nodetypes="sss" />
    <path
       style="fill:none;stroke:#ff0000;stroke-width:0.02822222mm"
       d="m 106.36085,104.35398 c 0.005,-2.02888 -3.04859,-2.02889 -3.04333,0 -0.005,2.02888 3.04861,2.02889 3.04333,0 z"
       id="path43"
       inkscape:connector-curvature="0"
       sodipodi:nodetypes="ccc" />
    <path
       style="fill:none;stroke:#ff0000;stroke-width:0.02822222mm"
       d="m 181.06303,105.02898 c 0,-2.0289 -3.04335,-2.0289 -3.04335,0 0,2.02888 3.04335,2.02888 3.04335,0 z"
       id="path47"
       inkscape:connector-curvature="0"
       sodipodi:nodetypes="sss" />
    <path
       style="fill:none;stroke:#ff0000;stroke-width:0.02822222mm"
       d="m 200.33765,285.7501 v 0"
       id="path63"
       inkscape:connector-curvature="0"
       sodipodi:nodetypes="cc" />
    <path
       style="fill:none;stroke:#ff0000;stroke-width:0.02822222mm"
       d="m 196.17276,289.72755 c 0.009,-2.00949 -3.00459,-2.00689 -2.99928,0.003 -0.009,2.00948 3.00459,2.00688 2.99928,-0.003 z"
       id="path65"
       inkscape:connector-curvature="0"
       sodipodi:nodetypes="ccc" />
    <path
       style="fill:none;stroke:#ff0000;stroke-width:0.02822222mm"
       d="m 200.33765,285.7501 v 0"
       id="path67"
       inkscape:connector-curvature="0"
       sodipodi:nodetypes="cc" />
    <path
       style="display:inline;fill:none;stroke:#ff0000;stroke-width:0.107;stroke-miterlimit:4;stroke-dasharray:none"
       d="m 25.712393,105.60398 c -10e-6,-3.86598 1.133633,-4.99993 4.999622,-4.99993 l 148.307335,1e-5 c 3.86582,0 5.00047,1.13394 5.00065,4.99992 l -2.5e-4,98.33681 c -10e-6,2.7205 2.31865,6.61481 4.78431,7.76446 l 34.1845,15.94047 c 3.50391,1.63376 4.05232,3.14078 2.41846,6.64463 l -26.48048,56.78743 c -1.63375,3.5036 -3.14091,4.05193 -6.64465,2.41846 L 111.9429,256.03362 c -0.92625,-0.43182 -2.45074,-0.70245 -3.47272,-0.70245 l -77.758165,-2e-4 c -3.865999,-2e-5 -4.999692,-1.13401 -4.999682,-5.00001 z"
       id="path59"
       inkscape:connector-curvature="0"
       sodipodi:nodetypes="ccccccccccccccc" />
  </g>
  <g
     inkscape:groupmode="layer"
     id="layer4"
     inkscape:label="Layer 45C"
     style="display:inline"
     transform="translate(0,-2.0833232)">
    <path
       style="fill:none;stroke:#ff0000;stroke-width:0.02822222mm"
       d="m 141.13907,164.4381 14.60026,-31.31031 c 0.47113,-1.01034 -0.26655,-2.16805 -1.38133,-2.16806 h -14.48102 c -0.84168,0 -1.52399,0.68232 -1.52399,1.524 l -1e-5,15.24 c 0,0.56112 -0.45488,1.016 -1.016,1.016 l -17.71139,-1e-5 c -0.41401,1e-5 -0.78661,-0.25119 -0.94187,-0.63499 -0.23287,-0.57569 -0.79176,-0.9525 -1.41278,-0.9525 H 101.7769 c -0.62101,-1e-5 -1.17991,0.3768 -1.41279,0.9525 -0.15526,0.38379 -0.527847,0.63499 -0.941857,0.635 H 82.726864 c -0.841692,-1e-5 -1.524013,0.68231 -1.524013,1.524 l 1e-5,0.635 c 0,0.56112 -0.454881,1.016 -1.016003,1.016 l -36.576094,-4.1e-4 c -0.561121,0 -1.016002,-0.45447 -1.016002,-1.01559 l 10e-6,-16.51 c 0,-0.84168 -0.682322,-1.52401 -1.524014,-1.52401 l -6.912156,1e-5 c -0.552291,0 -1.000012,-0.44771 -1.000012,-1 V 57.156732 c 0,-0.552284 0.447721,-0.999998 1.000002,-0.999998 l 45.012264,3e-6 c 0.841682,-10e-7 1.524003,-0.68232 1.524003,-1.524001 v -0.634998 c 0,-0.56112 0.454872,-1.016 1.015993,-1.016004 l 16.510048,3e-6 c 0.621011,-2e-6 1.179902,-0.376811 1.412783,-0.9525 0.15525,-0.383794 0.527847,-0.634912 0.941867,-0.634914 l 17.89675,-8.9e-5 c 0.41401,2e-6 0.7866,0.251208 0.94185,0.635001 0.23288,0.575693 0.79178,0.952504 1.4128,0.952501 h 16.85033 c 0.36298,-10e-7 0.69839,0.193649 0.87988,0.508003 0.27224,0.471527 0.77535,0.762 1.31983,0.762001 l 35.56007,-3e-6 c 0.56113,0 1.01601,0.454879 1.01601,1.016001 l 1e-5,74.675992 c 0,0.56112 -0.45488,1.016 -1.01601,1.016 h -12.55942 c -1.08722,2e-5 -1.41473,1.4773 -0.4294,1.9368 l 10.4619,4.87846 c 0.76283,0.35572 1.66959,0.0257 2.0253,-0.73715 l 6.97743,-14.96314 c 0.23714,-0.50855 0.84164,-0.72857 1.35019,-0.49143 l 33.1492,15.45769 c 0.50855,0.23715 0.72856,0.84165 0.49142,1.35019 l -23.5086,50.41428 c -0.23714,0.50855 -0.84166,0.72857 -1.35021,0.49143 l -50.41439,-23.50857 c -0.50854,-0.23714 -0.72857,-0.84164 -0.49142,-1.35019 z"
       id="path38"
       inkscape:connector-curvature="0"
       sodipodi:nodetypes="sccccscccccccccccsccccccscccccsscsccccsscscccccsccscss" />
  </g>
  <g
     inkscape:groupmode="layer"
     id="layer16"
     inkscape:label="Layer 34"
     style="display:none">
    <g
       transform="translate(0,-2.0833232)"
       inkscape:groupmode="layer"
       id="g157639"
       inkscape:label="High"
       style="display:inline" />
    <g
       inkscape:groupmode="layer"
       id="layer7"
       inkscape:label="Left"
       style="display:none">
      <path
         style="display:inline;fill:none;stroke:#ff0000;stroke-width:0.10700001;stroke-linecap:butt;stroke-linejoin:miter;stroke-miterlimit:4;stroke-dasharray:none;stroke-opacity:1"
         d="m 176.265,41.054999 h 7.755"
         id="path2038"
         inkscape:connector-curvature="0"
         sodipodi:nodetypes="cc" />
      <path
         style="display:inline;fill:none;stroke:#ff0000;stroke-width:0.10700002;stroke-linecap:butt;stroke-linejoin:miter;stroke-miterlimit:4;stroke-dasharray:none;stroke-opacity:1"
         d="m 176.265,29.0545 h 7.755"
         id="path2038-3"
         inkscape:connector-curvature="0"
         sodipodi:nodetypes="cc" />
    </g>
    <g
       inkscape:groupmode="layer"
       id="layer3"
       inkscape:label="Right"
       style="display:none">
      <path
         style="display:inline;fill:none;stroke:#ff0000;stroke-width:0.10700002;stroke-linecap:butt;stroke-linejoin:miter;stroke-miterlimit:4;stroke-dasharray:none;stroke-opacity:1"
         d="m 176.265,28.0015 h 7.755"
         id="path2038-3-5"
         inkscape:connector-curvature="0"
         sodipodi:nodetypes="cc" />
      <path
         style="display:inline;fill:none;stroke:#ff0000;stroke-width:0.10700002;stroke-linecap:butt;stroke-linejoin:miter;stroke-miterlimit:4;stroke-dasharray:none;stroke-opacity:1"
         d="m 176.265,16.0015 h 7.75501"
         id="path2038-3-5-3"
         inkscape:connector-curvature="0"
         sodipodi:nodetypes="cc" />
    </g>
    <path
       style="display:inline;fill:none;stroke:#ff0000;stroke-width:0.02822222mm"
       d="M 32.97702,47.006 H 176.265 L 176.246,10.104001 H 32.93922 Z"
       id="path157637"
       inkscape:connector-curvature="0"
       sodipodi:nodetypes="ccccc" />
  </g>
  <g
     inkscape:groupmode="layer"
     id="layer18"
     inkscape:label="Layer 3"
     style="display:none">
    <path
       style="display:inline;fill:none;stroke:#ff0000;stroke-width:0.02822222mm"
       d="m 159.70591,107.44177 v 13.97003 h 13.97 l -10e-6,-13.97003 z"
       id="path1389-45-3-5-2-7-1-94"
       inkscape:connector-curvature="0"
       sodipodi:nodetypes="ccccc" />
    <path
       style="display:inline;fill:none;stroke:#ff0000;stroke-width:0.02822222mm"
       d="m 40.643137,56.961828 v 13.970033 h 13.969999 l -9e-6,-13.970033 z"
       id="path1389-45-3-5-2-7-1"
       inkscape:connector-curvature="0"
       sodipodi:nodetypes="ccccc" />
    <path
       style="display:inline;fill:none;stroke:#ff0000;stroke-width:0.02822222mm"
       d="m 64.455733,56.961828 v 13.970033 h 13.97 l -8e-6,-13.970033 z"
       id="path1389-45-3-5-2-7-1-4"
       inkscape:connector-curvature="0"
       sodipodi:nodetypes="ccccc" />
    <path
       style="display:inline;fill:none;stroke:#ff0000;stroke-width:0.02822222mm"
       d="M 83.505778,53.784288 V 67.75432 h 13.97 l -1.1e-5,-13.970032 z"
       id="path1389-45-3-5-2-7-1-9"
       inkscape:connector-curvature="0"
       sodipodi:nodetypes="ccccc" />
    <path
       style="display:inline;fill:none;stroke:#ff0000;stroke-width:0.02822222mm"
       d="M 102.55582,52.186628 V 66.15666 h 13.97 l -10e-6,-13.970032 z"
       id="path1389-45-3-5-2-7-1-2"
       inkscape:connector-curvature="0"
       sodipodi:nodetypes="ccccc" />
    <path
       style="display:inline;fill:none;stroke:#ff0000;stroke-width:0.02822222mm"
       d="M 121.60586,53.784288 V 67.75432 h 13.97 l -1e-5,-13.970032 z"
       id="path1389-45-3-5-2-7-1-0"
       inkscape:connector-curvature="0"
       sodipodi:nodetypes="ccccc" />
    <path
       style="display:inline;fill:none;stroke:#ff0000;stroke-width:0.02822222mm"
       d="M 140.65591,55.056828 V 69.02686 h 13.97 l -1e-5,-13.970032 z"
       id="path1389-45-3-5-2-7-1-6"
       inkscape:connector-curvature="0"
       sodipodi:nodetypes="ccccc" />
    <path
       style="display:inline;fill:none;stroke:#ff0000;stroke-width:0.02822222mm"
       d="M 159.70595,55.056828 V 69.02686 h 13.97 l -1e-5,-13.970032 z"
       id="path1389-45-3-5-2-7-1-8"
       inkscape:connector-curvature="0"
       sodipodi:nodetypes="ccccc" />
    <path
       style="display:inline;fill:none;stroke:#ff0000;stroke-width:0.02822222mm"
       d="m 159.70595,78.86679 v 13.970031 h 13.97 l -1e-5,-13.970031 z"
       id="path1389-45-3-5-2-7-1-92"
       inkscape:connector-curvature="0"
       sodipodi:nodetypes="ccccc" />
    <path
       style="display:inline;fill:none;stroke:#ff0000;stroke-width:0.02822222mm"
       d="m 140.65586,74.104289 v 13.970032 h 13.96999 V 74.104289 Z"
       id="path1389-45-3-5-2-7-1-66"
       inkscape:connector-curvature="0"
       sodipodi:nodetypes="ccccc" />
    <path
       style="display:inline;fill:none;stroke:#ff0000;stroke-width:0.02822222mm"
       d="m 121.60582,72.834289 v 13.970032 h 13.97 l -1e-5,-13.970032 z"
       id="path1389-45-3-5-2-7-1-49"
       inkscape:connector-curvature="0"
       sodipodi:nodetypes="ccccc" />
    <path
       style="display:inline;fill:none;stroke:#ff0000;stroke-width:0.02822222mm"
       d="m 102.55578,71.236629 v 13.970032 h 13.97 l -1e-5,-13.970032 z"
       id="path1389-45-3-5-2-7-1-5"
       inkscape:connector-curvature="0"
       sodipodi:nodetypes="ccccc" />
    <path
       style="display:inline;fill:none;stroke:#ff0000;stroke-width:0.02822222mm"
       d="m 83.505736,72.834289 v 13.970032 h 13.97 l -8e-6,-13.970032 z"
       id="path1389-45-3-5-2-7-1-04"
       inkscape:connector-curvature="0"
       sodipodi:nodetypes="ccccc" />
    <path
       style="display:inline;fill:none;stroke:#ff0000;stroke-width:0.02822222mm"
       d="m 64.455733,76.009289 v 13.970032 h 13.97 l -8e-6,-13.970032 z"
       id="path1389-45-3-5-2-7-1-87"
       inkscape:connector-curvature="0"
       sodipodi:nodetypes="ccccc" />
    <path
       style="display:inline;fill:none;stroke:#ff0000;stroke-width:0.02822222mm"
       d="m 40.643178,76.009289 v 13.970032 h 13.969999 l -9e-6,-13.970032 z"
       id="path1389-45-3-5-2-7-1-1"
       inkscape:connector-curvature="0"
       sodipodi:nodetypes="ccccc" />
    <path
       style="display:inline;fill:none;stroke:#ff0000;stroke-width:0.02822222mm"
       d="m 40.643179,95.059292 v 13.970028 h 13.969998 l -9e-6,-13.970028 z"
       id="path1389-45-3-5-2-7-1-7"
       inkscape:connector-curvature="0"
       sodipodi:nodetypes="ccccc" />
    <path
       style="display:inline;fill:none;stroke:#ff0000;stroke-width:0.02822222mm"
       d="m 64.455733,95.059292 v 13.970038 h 13.97 l -8e-6,-13.970038 z"
       id="path1389-45-3-5-2-7-1-27"
       inkscape:connector-curvature="0"
       sodipodi:nodetypes="ccccc" />
    <path
       style="display:inline;fill:none;stroke:#ff0000;stroke-width:0.02822222mm"
       d="m 83.505778,91.884292 v 13.970028 h 13.97 l -1.1e-5,-13.970028 z"
       id="path1389-45-3-5-2-7-1-22"
       inkscape:connector-curvature="0"
       sodipodi:nodetypes="ccccc" />
    <path
       style="display:inline;fill:none;stroke:#ff0000;stroke-width:0.02822222mm"
       d="m 102.55582,90.286632 v 13.970028 h 13.97 l -10e-6,-13.970028 z"
       id="path1389-45-3-5-2-7-1-61"
       inkscape:connector-curvature="0"
       sodipodi:nodetypes="ccccc" />
    <path
       style="display:inline;fill:none;stroke:#ff0000;stroke-width:0.02822222mm"
       d="m 121.60586,91.884292 v 13.970028 h 13.97 l -1e-5,-13.970028 z"
       id="path1389-45-3-5-2-7-1-06"
       inkscape:connector-curvature="0"
       sodipodi:nodetypes="ccccc" />
    <path
       style="display:inline;fill:none;stroke:#ff0000;stroke-width:0.02822222mm"
       d="m 140.65586,93.154237 v 13.970033 h 13.97 l -10e-6,-13.970033 z"
       id="path1389-45-3-5-2-7-1-15"
       inkscape:connector-curvature="0"
       sodipodi:nodetypes="ccccc" />
    <path
       style="display:inline;opacity:1;vector-effect:none;fill:none;fill-opacity:1;stroke:#ff0000;stroke-width:0.02822222mm;stroke-linecap:butt;stroke-linejoin:miter;stroke-miterlimit:4;stroke-dasharray:none;stroke-dashoffset:0;stroke-opacity:1"
       d="m 140.65586,112.20427 v 13.97003 h 13.97 v -13.97003 z"
       id="path1389-45-3-5-2-7-1-90"
       inkscape:connector-curvature="0"
       sodipodi:nodetypes="ccccc" />
    <path
       style="display:inline;fill:none;stroke:#ff0000;stroke-width:0.02822222mm"
       d="m 121.60582,110.93423 v 13.97004 h 13.97 l -1e-5,-13.97004 z"
       id="path1389-45-3-5-2-7-1-77"
       inkscape:connector-curvature="0"
       sodipodi:nodetypes="ccccc" />
    <path
       style="display:inline;fill:none;stroke:#ff0000;stroke-width:0.02822222mm"
       d="m 102.55578,109.33661 v 13.97003 h 13.97 l -1e-5,-13.97003 z"
       id="path1389-45-3-5-2-7-1-11"
       inkscape:connector-curvature="0"
       sodipodi:nodetypes="ccccc" />
    <path
       style="display:inline;fill:none;stroke:#ff0000;stroke-width:0.02822222mm"
       d="m 83.505736,110.93427 v 13.97003 h 13.97 l -8e-6,-13.97003 z"
       id="path1389-45-3-5-2-7-1-59"
       inkscape:connector-curvature="0"
       sodipodi:nodetypes="ccccc" />
    <path
       style="display:inline;fill:none;stroke:#ff0000;stroke-width:0.02822222mm"
       d="m 64.455734,114.10927 v 13.97003 h 13.97 l -8e-6,-13.97003 z"
       id="path1389-45-3-5-2-7-1-776"
       inkscape:connector-curvature="0"
       sodipodi:nodetypes="ccccc" />
    <path
       style="display:inline;fill:none;stroke:#ff0000;stroke-width:0.02822222mm"
       d="m 40.643179,114.10927 v 13.97003 h 13.97 l -9e-6,-13.97003 z"
       id="path1389-45-3-5-2-7-1-73"
       inkscape:connector-curvature="0"
       sodipodi:nodetypes="ccccc" />
    <path
       style="display:inline;fill:none;stroke:#ff0000;stroke-width:0.02822222mm"
       d="m 45.405689,133.15927 v 13.97003 h 13.97 l -9e-6,-13.97003 z"
       id="path1389-45-3-5-2-7-1-65"
       inkscape:connector-curvature="0"
       sodipodi:nodetypes="ccccc" />
    <path
       style="display:inline;fill:none;stroke:#ff0000;stroke-width:0.02822222mm"
       d="m 64.455734,133.15927 v 13.97004 h 13.97 l -8e-6,-13.97004 z"
       id="path1389-45-3-5-2-7-1-63"
       inkscape:connector-curvature="0"
       sodipodi:nodetypes="ccccc" />
    <path
       style="display:inline;fill:none;stroke:#ff0000;stroke-width:0.02822222mm"
       d="m 83.505736,129.98427 v 13.97003 h 13.97 l -8e-6,-13.97003 z"
       id="path1389-45-3-5-2-7-1-948"
       inkscape:connector-curvature="0"
       sodipodi:nodetypes="ccccc" />
    <path
       style="display:inline;fill:none;stroke:#ff0000;stroke-width:0.02822222mm"
       d="m 102.55578,128.38661 v 13.97003 h 13.97 l -1e-5,-13.97003 z"
       id="path1389-45-3-5-2-7-1-12"
       inkscape:connector-curvature="0"
       sodipodi:nodetypes="ccccc" />
    <path
       style="display:inline;fill:none;stroke:#ff0000;stroke-width:0.02822222mm"
       d="m 121.60582,129.98427 v 13.97004 h 13.96999 v -13.97004 z"
       id="path1389-45-3-5-2-7-1-93"
       inkscape:connector-curvature="0"
       sodipodi:nodetypes="ccccc" />
    <path
       style="display:inline;fill:none;stroke:#ff0000;stroke-width:0.02822222mm"
       d="m 183.74027,122.87887 -5.90399,12.66115 12.66111,5.90398 5.90399,-12.66115 z"
       id="path1389-45-3-5-2-7-1-908"
       inkscape:connector-curvature="0"
       sodipodi:nodetypes="ccccc" />
    <path
       style="display:inline;fill:none;stroke:#ff0000;stroke-width:0.02822222mm"
       d="m 201.00469,130.92813 -5.90399,12.66115 12.66111,5.90398 5.90399,-12.66115 z"
       id="path1389-45-3-5-2-7-1-908-8"
       inkscape:connector-curvature="0"
       sodipodi:nodetypes="ccccc" />
    <path
       style="display:inline;fill:none;stroke:#ff0000;stroke-width:0.02822222mm"
       d="m 192.95459,148.19099 -5.90399,12.66115 12.66111,5.90398 5.90399,-12.66115 z"
       id="path1389-45-3-5-2-7-1-908-5"
       inkscape:connector-curvature="0"
       sodipodi:nodetypes="ccccc" />
    <path
       style="display:inline;fill:none;stroke:#ff0000;stroke-width:0.02822222mm"
       d="m 184.90278,165.45791 -5.90399,12.66115 12.66111,5.90398 5.90399,-12.66115 z"
       id="path1389-45-3-5-2-7-1-908-0"
       inkscape:connector-curvature="0"
       sodipodi:nodetypes="ccccc" />
    <path
       style="display:inline;fill:none;stroke:#ff0000;stroke-width:0.02822222mm"
       d="m 171.66445,148.77502 -5.90401,12.66116 12.66112,5.90397 5.904,-12.66115 z"
       id="path1389-45-3-5-2-7-1-908-9-6"
       inkscape:connector-curvature="0"
       sodipodi:nodetypes="ccccc" />
    <path
       style="display:inline;fill:none;stroke:#ff0000;stroke-width:0.02822222mm"
       d="m 154.40083,140.72474 -5.90397,12.66115 12.66111,5.90398 5.90399,-12.66115 z"
       id="path1389-45-3-5-2-7-1-908-6-26"
       inkscape:connector-curvature="0"
       sodipodi:nodetypes="ccccc" />
    <path
       style="display:inline;fill:none;stroke:#ff0000;stroke-width:0.02822222mm"
       d="m 169.11866,140.41145 -12.65938,-5.90297 -1.31232,2.8105 12.66179,5.90325 z"
       id="path1547-1"
       inkscape:connector-curvature="0"
       sodipodi:nodetypes="ccccc" />
    <path
       style="display:inline;fill:none;stroke:#ff0000;stroke-width:0.02822222mm"
       d="m 186.38209,148.46192 -12.65939,-5.90297 -1.31232,2.8105 12.66179,5.90325 z"
       id="path1547-3-8"
       inkscape:connector-curvature="0"
       sodipodi:nodetypes="ccccc" />
    <path
       style="display:inline;fill:none;stroke:#ff0000;stroke-width:0.02822222mm"
       d="m 159.02754,162.04903 -12.65938,-5.90297 -1.31268,2.81125 12.6618,5.90325 z"
       id="path1547-8-7"
       inkscape:connector-curvature="0"
       sodipodi:nodetypes="ccccc" />
    <path
       style="display:inline;fill:none;stroke:#ff0000;stroke-width:0.02822222mm"
       d="m 176.29102,170.10191 -12.65938,-5.90297 -1.31268,2.81126 12.66179,5.90325 z"
       id="path1547-5-9"
       inkscape:connector-curvature="0"
       sodipodi:nodetypes="ccccc" />
  </g>
  <g
     inkscape:groupmode="layer"
     id="layer2"
     inkscape:label="Layer 2"
     style="display:none"
     transform="translate(0,-2.0833232)">
    <path
       style="fill:none;stroke:#ff0000;stroke-width:0.02822222mm"
       d="M 176.46633,12.187048 V 120.64502 h 4.90221 l 33.09119,15.4305 1.53671,4.21894 -21.68403,46.50232 -4.21895,1.53416 -78.16868,-36.44392 H 42.684222 l -9.525022,-9.525 V 12.187048 Z"
       id="path36"
       inkscape:connector-curvature="0"
       sodipodi:nodetypes="cccccccccccc" />
  </g>
</svg>
